<mxfile host="" modified="2020-05-29T01:04:50.661Z" agent="5.0 (Windows NT 10.0; Win64; x64) AppleWebKit/537.36 (KHTML, like Gecko) Code/1.45.1 Chrome/78.0.3904.130 Electron/7.2.4 Safari/537.36" etag="48yc5dkXUZKEqkLJDENI" version="13.1.3">
    <diagram id="6hGFLwfOUW9BJ-s0fimq" name="Page-1">
        <mxGraphModel dx="938" dy="463" grid="1" gridSize="10" guides="1" tooltips="1" connect="1" arrows="1" fold="1" page="1" pageScale="1" pageWidth="827" pageHeight="1169" math="0" shadow="0">
            <root>
                <mxCell id="0"/>
                <mxCell id="1" parent="0"/>
                <mxCell id="6" style="edgeStyle=orthogonalEdgeStyle;rounded=0;orthogonalLoop=1;jettySize=auto;html=1;exitX=0;exitY=0;exitDx=70;exitDy=60;exitPerimeter=0;" edge="1" parent="1" source="2">
                    <mxGeometry relative="1" as="geometry">
                        <mxPoint x="140" y="180" as="targetPoint"/>
                    </mxGeometry>
                </mxCell>
                <mxCell id="2" value="&lt;h3&gt;&lt;font color=&quot;#000000&quot;&gt;C code&lt;/font&gt;&lt;/h3&gt;" style="shape=note;strokeWidth=2;fontSize=14;size=20;whiteSpace=wrap;html=1;fillColor=#fff2cc;strokeColor=#d6b656;fontColor=#666600;" vertex="1" parent="1">
                    <mxGeometry x="30" y="120" width="70" height="100" as="geometry"/>
                </mxCell>
                <mxCell id="7" style="edgeStyle=orthogonalEdgeStyle;rounded=0;orthogonalLoop=1;jettySize=auto;html=1;exitX=0;exitY=0;exitDx=160;exitDy=85;exitPerimeter=0;entryX=-0.05;entryY=0.6;entryDx=0;entryDy=0;entryPerimeter=0;" edge="1" parent="1" source="3" target="5">
                    <mxGeometry relative="1" as="geometry"/>
                </mxCell>
                <mxCell id="3" value="&lt;h2&gt;Source-to-Source Compiler&lt;/h2&gt;" style="shape=cube;whiteSpace=wrap;html=1;boundedLbl=1;backgroundOutline=1;darkOpacity=0.05;darkOpacity2=0.1;" vertex="1" parent="1">
                    <mxGeometry x="140" y="100" width="160" height="150" as="geometry"/>
                </mxCell>
                <mxCell id="9" style="edgeStyle=orthogonalEdgeStyle;rounded=0;orthogonalLoop=1;jettySize=auto;html=1;exitX=0;exitY=0;exitDx=70;exitDy=60;exitPerimeter=0;" edge="1" parent="1" source="5">
                    <mxGeometry relative="1" as="geometry">
                        <mxPoint x="414" y="185" as="targetPoint"/>
                    </mxGeometry>
                </mxCell>
                <mxCell id="11" style="edgeStyle=orthogonalEdgeStyle;rounded=0;orthogonalLoop=1;jettySize=auto;html=1;exitX=0;exitY=0;exitDx=70;exitDy=60;exitPerimeter=0;entryX=0.013;entryY=0.567;entryDx=0;entryDy=0;entryPerimeter=0;" edge="1" parent="1" source="5" target="8">
                    <mxGeometry relative="1" as="geometry"/>
                </mxCell>
                <mxCell id="5" value="&lt;h3&gt;&lt;font color=&quot;#000000&quot;&gt;Restructured C Code&lt;/font&gt;&lt;/h3&gt;" style="shape=note;strokeWidth=2;fontSize=14;size=20;whiteSpace=wrap;html=1;fillColor=#fff2cc;strokeColor=#d6b656;fontColor=#666600;" vertex="1" parent="1">
                    <mxGeometry x="350" y="125" width="110" height="100" as="geometry"/>
                </mxCell>
                <mxCell id="13" style="edgeStyle=orthogonalEdgeStyle;rounded=0;orthogonalLoop=1;jettySize=auto;html=1;exitX=0;exitY=0;exitDx=90;exitDy=150;exitPerimeter=0;" edge="1" parent="1" source="8" target="12">
                    <mxGeometry relative="1" as="geometry"/>
                </mxCell>
                <mxCell id="8" value="&lt;h2&gt;High-Level Synthesis Compiler&lt;/h2&gt;" style="shape=cube;whiteSpace=wrap;html=1;boundedLbl=1;backgroundOutline=1;darkOpacity=0.05;darkOpacity2=0.1;" vertex="1" parent="1">
                    <mxGeometry x="500" y="100" width="160" height="150" as="geometry"/>
                </mxCell>
                <mxCell id="20" style="edgeStyle=orthogonalEdgeStyle;rounded=0;orthogonalLoop=1;jettySize=auto;html=1;exitX=0;exitY=0;exitDx=70;exitDy=60;exitPerimeter=0;entryX=0.006;entryY=0.56;entryDx=0;entryDy=0;entryPerimeter=0;" edge="1" parent="1" source="12" target="14">
                    <mxGeometry relative="1" as="geometry">
                        <Array as="points">
                            <mxPoint x="100" y="399"/>
                        </Array>
                    </mxGeometry>
                </mxCell>
                <mxCell id="12" value="&lt;h3&gt;&lt;font color=&quot;#000000&quot;&gt;VHDL / Verilog code&lt;/font&gt;&lt;/h3&gt;" style="shape=note;strokeWidth=2;fontSize=14;size=20;whiteSpace=wrap;html=1;fillColor=#fff2cc;strokeColor=#d6b656;fontColor=#666600;" vertex="1" parent="1">
                    <mxGeometry x="30" y="340" width="70" height="100" as="geometry"/>
                </mxCell>
                <mxCell id="24" style="edgeStyle=orthogonalEdgeStyle;rounded=0;orthogonalLoop=1;jettySize=auto;html=1;exitX=0;exitY=0;exitDx=160;exitDy=85;exitPerimeter=0;entryX=-0.064;entryY=0.603;entryDx=0;entryDy=0;entryPerimeter=0;" edge="1" parent="1" source="14" target="22">
                    <mxGeometry relative="1" as="geometry"/>
                </mxCell>
                <mxCell id="14" value="&lt;h2&gt;HDL Compiler&lt;/h2&gt;" style="shape=cube;whiteSpace=wrap;html=1;boundedLbl=1;backgroundOutline=1;darkOpacity=0.05;darkOpacity2=0.1;" vertex="1" parent="1">
                    <mxGeometry x="140" y="315" width="160" height="150" as="geometry"/>
                </mxCell>
                <mxCell id="25" style="edgeStyle=orthogonalEdgeStyle;rounded=0;orthogonalLoop=1;jettySize=auto;html=1;exitX=0;exitY=0;exitDx=86;exitDy=60;exitPerimeter=0;" edge="1" parent="1" source="22">
                    <mxGeometry relative="1" as="geometry">
                        <mxPoint x="520" y="400" as="targetPoint"/>
                    </mxGeometry>
                </mxCell>
                <mxCell id="22" value="&lt;h3&gt;&lt;font color=&quot;#000000&quot;&gt;FPGA bitstream&lt;/font&gt;&lt;/h3&gt;" style="shape=note;strokeWidth=2;fontSize=14;size=20;whiteSpace=wrap;html=1;fillColor=#fff2cc;strokeColor=#d6b656;fontColor=#666600;" vertex="1" parent="1">
                    <mxGeometry x="362" y="340" width="86" height="100" as="geometry"/>
                </mxCell>
                <mxCell id="26" value="Target FPGA" style="strokeColor=#dddddd;shadow=1;strokeWidth=1;rounded=1;absoluteArcSize=1;arcSize=2;labelPosition=center;verticalLabelPosition=middle;align=center;verticalAlign=bottom;spacingLeft=0;fontColor=#FFFFFF;fontSize=18;whiteSpace=wrap;spacingBottom=2;fontStyle=1" vertex="1" parent="1">
                    <mxGeometry x="525" y="317.5" width="110" height="145" as="geometry"/>
                </mxCell>
                <mxCell id="27" value="" style="dashed=0;connectable=0;html=1;fillColor=#757575;strokeColor=none;shape=mxgraph.gcp2.circuit_board;part=1;flipV=0;flipH=1;" vertex="1" parent="26">
                    <mxGeometry x="0.5" width="90" height="80" relative="1" as="geometry">
                        <mxPoint x="-46" y="12.5" as="offset"/>
                    </mxGeometry>
                </mxCell>
            </root>
        </mxGraphModel>
    </diagram>
</mxfile>